<svg width="16" height="17" viewBox="0 0 16 17" fill="none" xmlns="http://www.w3.org/2000/svg">
<path fill-rule="evenodd" clip-rule="evenodd" d="M8.52121 3.0857C8.22766 2.80181 7.75954 2.8048 7.46967 3.09467L2.96967 7.59467L2.9607 7.60379C2.67681 7.89734 2.6798 8.36546 2.96967 8.65533L2.97879 8.6643C3.27233 8.94819 3.74046 8.9452 4.03033 8.65533L7.25 5.43566V13.375L7.2501 13.3874C7.25672 13.7959 7.58993 14.125 8 14.125C8.41421 14.125 8.75 13.7892 8.75 13.375V5.43566L11.9697 8.65533L11.9788 8.6643C12.2723 8.94819 12.7405 8.9452 13.0303 8.65533C13.3232 8.36244 13.3232 7.88756 13.0303 7.59467L8.53033 3.09467L8.52121 3.0857Z" fill="#00773E"/>
</svg>
