<svg width="16" height="17" viewBox="0 0 16 17" fill="none" xmlns="http://www.w3.org/2000/svg">
<path fill-rule="evenodd" clip-rule="evenodd" d="M8.7499 3.6126C8.74328 3.2041 8.41007 2.875 8 2.875C7.58579 2.875 7.25 3.21079 7.25 3.625V11.5643L4.03033 8.34467L4.02121 8.3357C3.72766 8.05181 3.25954 8.0548 2.96967 8.34467C2.67678 8.63756 2.67678 9.11244 2.96967 9.40533L7.46967 13.9053L7.47879 13.9143C7.77234 14.1982 8.24046 14.1952 8.53033 13.9053L13.0303 9.40533L13.0393 9.39621C13.3232 9.10266 13.3202 8.63454 13.0303 8.34467L13.0212 8.3357C12.7277 8.05181 12.2595 8.0548 11.9697 8.34467L8.75 11.5643V3.625L8.7499 3.6126Z" fill="#EC445A"/>
</svg>
