<svg width="38" height="39" viewBox="0 0 38 39" fill="none" xmlns="http://www.w3.org/2000/svg">
<path fill-rule="evenodd" clip-rule="evenodd" d="M12.5109 9.66683C12.5109 6.08273 15.4163 3.17725 19.0004 3.17725C22.5845 3.17725 25.49 6.08273 25.49 9.66683C25.49 13.2509 22.5845 16.1564 19.0004 16.1564C15.4163 16.1564 12.5109 13.2509 12.5109 9.66683ZM19.0004 0.177246C13.7595 0.177246 9.51086 4.42588 9.51086 9.66683C9.51086 14.9078 13.7595 19.1564 19.0004 19.1564C24.2414 19.1564 28.49 14.9078 28.49 9.66683C28.49 4.42588 24.2414 0.177246 19.0004 0.177246ZM4.00162 33.1275C4.85814 31.5057 6.26116 29.7246 8.57962 28.3406C10.8993 26.956 14.2228 25.9168 19.0004 25.9168C23.7781 25.9168 27.1016 26.956 29.4213 28.3406C31.7397 29.7245 33.1427 31.5057 33.9993 33.1275C34.3605 33.8115 34.2454 34.3967 33.8672 34.8715C33.4493 35.3963 32.6556 35.8231 31.667 35.8231H6.33389C5.34526 35.8231 4.55158 35.3963 4.13364 34.8715C3.75552 34.3967 3.64038 33.8115 4.00162 33.1275ZM19.0004 22.9168C13.7776 22.9168 9.90273 24.057 7.04198 25.7647C4.18006 27.473 2.42071 29.6969 1.34884 31.7265C0.399122 33.5248 0.709702 35.3877 1.78684 36.7403C2.82417 38.043 4.5153 38.8231 6.33389 38.8231H31.667C33.4856 38.8231 35.1767 38.043 36.214 36.7403C37.2912 35.3877 37.6018 33.5248 36.652 31.7265C35.5802 29.6969 33.8208 27.473 30.9589 25.7647C28.0981 24.057 24.2233 22.9168 19.0004 22.9168Z" fill="#051E4B"/>
</svg>
