<svg width="39" height="39" viewBox="0 0 39 39" fill="none" xmlns="http://www.w3.org/2000/svg">
<path fill-rule="evenodd" clip-rule="evenodd" d="M20.3523 0.442427C19.8396 0.0888524 19.1617 0.0888524 18.6491 0.442427L0.826135 12.7341C0.420152 13.0141 0.177734 13.4757 0.177734 13.9689V32.4064C0.177734 35.9503 3.05058 38.8231 6.5944 38.8231H32.4069C35.9507 38.8231 38.8236 35.9502 38.8236 32.4064V13.9689C38.8236 13.4757 38.5812 13.0141 38.1752 12.7341L20.3523 0.442427ZM3.17773 32.4064V14.7566L19.5007 3.49938L35.8236 14.7566V32.4064C35.8236 34.2934 34.2939 35.8231 32.4069 35.8231H26.5304V28.7165C26.5304 25.1727 23.6576 22.2998 20.1137 22.2998H18.8846C15.3407 22.2998 12.4679 25.1727 12.4679 28.7165V35.8231H6.5944C4.70743 35.8231 3.17773 34.2934 3.17773 32.4064ZM15.4679 28.7165C15.4679 26.8295 16.9976 25.2998 18.8846 25.2998H20.1137C22.0007 25.2998 23.5304 26.8295 23.5304 28.7165V35.8207H15.4679V28.7165Z" fill="#051E4B"/>
</svg>
