<svg width="43" height="36" viewBox="0 0 43 36" fill="none" xmlns="http://www.w3.org/2000/svg">
<path fill-rule="evenodd" clip-rule="evenodd" d="M34.0622 2.2915C34.0622 1.46308 33.3906 0.791504 32.5622 0.791504C31.7337 0.791504 31.0622 1.46308 31.0622 2.2915V7.20817C31.0622 8.0366 31.7337 8.70817 32.5622 8.70817C33.3906 8.70817 34.0622 8.0366 34.0622 7.20817V2.2915ZM28.8747 6.24984L14.1247 6.24984V3.24984L28.8747 3.24984L28.8747 6.24984ZM3.83301 6.24984C3.55687 6.24984 3.33301 6.47369 3.33301 6.74984V11.8534L39.6663 11.8534V6.74984C39.6663 6.47369 39.4425 6.24984 39.1663 6.24984H36.2497C35.4212 6.24984 34.7497 5.57826 34.7497 4.74984C34.7497 3.92141 35.4212 3.24984 36.2497 3.24984H39.1663C41.0993 3.24984 42.6663 4.81684 42.6663 6.74984V32.2498C42.6663 34.1828 41.0993 35.7498 39.1663 35.7498H3.83301C1.90001 35.7498 0.333008 34.1828 0.333008 32.2498V6.74984C0.333008 4.81684 1.90001 3.24984 3.83301 3.24984H6.74967C7.5781 3.24984 8.24967 3.92141 8.24967 4.74984C8.24967 5.57826 7.5781 6.24984 6.74967 6.24984H3.83301ZM39.6663 14.8534L3.33301 14.8534V32.2498C3.33301 32.526 3.55687 32.7498 3.83301 32.7498H39.1663C39.4425 32.7498 39.6663 32.526 39.6663 32.2498V14.8534ZM10.4372 0.791504C11.2656 0.791504 11.9372 1.46308 11.9372 2.2915V5.979C11.9372 6.80743 11.2656 7.479 10.4372 7.479C9.60875 7.479 8.93717 6.80743 8.93717 5.979V2.2915C8.93717 1.46308 9.60875 0.791504 10.4372 0.791504Z" fill="#051E4B"/>
</svg>
