<svg width="141" height="29" viewBox="0 0 141 29" fill="none" xmlns="http://www.w3.org/2000/svg">
<g clip-path="url(#clip0_1705_277861)">
<path d="M45.8484 12.2859H40.96V20.1769H38.3779V12.2859H33.4961V10.1177H45.8484V12.2859Z" fill="#051E4B"/>
<path d="M49.8694 8.68506V10.8204H47.4121V8.68506H49.8694ZM49.8694 11.714V20.1766H47.4121V11.714H49.8694Z" fill="#051E4B"/>
<path d="M70.1516 15.4332L70.1188 20.177H67.668V16.4253C67.668 14.6316 67.3658 13.6986 65.6115 13.6986C64.3171 13.6986 63.0556 14.3162 62.3066 14.9864C62.3198 15.131 62.3198 15.2755 62.3198 15.4332L62.2935 20.177H59.8362V16.4253C59.8362 14.6316 59.5339 13.6986 57.7796 13.6986C56.3604 13.6986 54.9807 14.4279 54.2776 15.1901V20.177H51.8203V11.7144H54.2776V13.0941C55.1975 12.3583 56.5773 11.5698 58.6732 11.5698C59.9544 11.5698 61.1568 11.9443 61.8073 13.1204C62.8979 12.3057 64.4026 11.5698 66.4985 11.5698C68.3973 11.5698 70.1188 12.3714 70.1516 15.4332Z" fill="#051E4B"/>
<path fill-rule="evenodd" clip-rule="evenodd" d="M80.7956 17.1415H83.2332C82.6747 19.2966 80.5788 20.315 77.4447 20.315C74.2318 20.315 71.7285 19.0535 71.7285 15.9523C71.7285 12.8313 74.1596 11.5698 77.5893 11.5698C80.8088 11.5698 83.3778 12.6736 83.3778 16.5239H74.245C74.5144 17.8774 75.8087 18.3242 77.4447 18.3242C79.1399 18.3242 80.178 18.0022 80.7956 17.1415ZM74.3304 14.9601H80.7496C80.3357 13.7709 79.1267 13.4358 77.5761 13.4358C75.8941 13.4358 74.718 13.7709 74.3304 14.9601Z" fill="#051E4B"/>
<path d="M102.701 11.7139L98.8905 20.1765H95.6184L93.1348 14.2829L90.6446 20.1765H87.3726L83.5684 11.7139H86.3082L89.0809 18.2514L91.6696 11.7139H94.6L97.1822 18.2317L99.9548 11.7139H102.701Z" fill="#051E4B"/>
<path fill-rule="evenodd" clip-rule="evenodd" d="M112.038 17.1415H114.475C113.917 19.2966 111.821 20.315 108.687 20.315C105.474 20.315 102.971 19.0535 102.971 15.9523C102.971 12.8313 105.402 11.5698 108.831 11.5698C112.051 11.5698 114.62 12.6736 114.62 16.5239H105.487C105.757 17.8774 107.051 18.3242 108.687 18.3242C110.382 18.3242 111.42 18.0022 112.038 17.1415ZM105.573 14.9601H111.992C111.578 13.7709 110.369 13.4358 108.818 13.4358C107.136 13.4358 105.96 13.7709 105.573 14.9601Z" fill="#051E4B"/>
<path fill-rule="evenodd" clip-rule="evenodd" d="M127.997 15.9519C127.997 19.1845 125.671 20.3146 122.951 20.3146C121.131 20.3146 119.653 19.8153 118.733 18.8494V20.1766H116.275V8.68506H118.733V13.0346C119.653 12.0754 121.131 11.5694 122.951 11.5694C125.671 11.5694 127.997 12.7193 127.997 15.9519ZM125.526 15.9519C125.526 14.2699 124.331 13.626 122.136 13.626C119.935 13.626 118.733 14.2699 118.733 15.9519C118.733 17.6142 119.935 18.2646 122.136 18.2646C124.331 18.2646 125.526 17.6142 125.526 15.9519Z" fill="#051E4B"/>
<path d="M131.73 17.2006C131.73 18.1073 132.663 18.449 135.409 18.449C138.064 18.449 138.497 18.2782 138.497 17.6146C138.497 16.9707 138.096 16.9247 135.12 16.7407C131.401 16.5239 129.575 16.2414 129.575 14.198C129.575 11.9838 132.163 11.5698 135.179 11.5698C138.366 11.5698 140.679 11.9838 140.679 14.3162H138.208C138.208 13.6066 137.321 13.4358 135.035 13.4358C132.709 13.4358 132.045 13.6066 132.045 14.0994C132.045 14.6316 132.492 14.717 135.409 14.9338C138.714 15.177 140.968 15.2624 140.968 17.516C140.968 19.901 138.813 20.315 135.554 20.315C132.288 20.315 129.272 19.901 129.272 17.2006H131.73Z" fill="#051E4B"/>
<path d="M0.0332031 14.4998C0.0332031 6.99649 6.11736 0.905762 13.6273 0.905762C21.1306 0.905762 27.2148 6.99649 27.2148 14.4998C27.2148 22.0032 21.1306 28.0939 13.6273 28.0939C6.11736 28.0939 0.0332031 22.0032 0.0332031 14.4998Z" fill="#11F0B5"/>
<path d="M4.88867 7.75244H10.756C10.756 10.9851 8.13443 13.6066 4.90181 13.6066H4.88867V7.75244Z" fill="#007A5A"/>
<path d="M22.3656 7.74561V13.6129H16.5049V13.5998C16.5049 10.3672 19.1265 7.74561 22.3656 7.74561Z" fill="#007A5A"/>
<path d="M10.8018 10.6764C10.8018 9.08635 12.0895 7.79199 13.6796 7.79199C15.2762 7.79199 16.564 9.08635 16.564 10.6764C16.564 12.273 15.2762 13.5608 13.6796 13.5608C12.0895 13.5608 10.8018 12.273 10.8018 10.6764Z" fill="#007A5A"/>
<path d="M16.5048 16.9702V23.6588H10.8018V16.9702C10.8018 15.3999 12.0764 14.1187 13.6533 14.1187C15.2302 14.1187 16.5048 15.3999 16.5048 16.9702Z" fill="#007A5A"/>
</g>
<defs>
<clipPath id="clip0_1705_277861">
<rect width="141" height="27.2013" fill="white" transform="translate(0 0.899414)"/>
</clipPath>
</defs>
</svg>
