<svg width="141" height="28" viewBox="0 0 141 28" fill="none" xmlns="http://www.w3.org/2000/svg">
<path d="M45.8484 11.3801H40.96V19.2711H38.3779V11.3801H33.4961V9.21191H45.8484V11.3801Z" fill="#767E9D"/>
<path d="M49.8694 7.7793V9.91467H47.4121V7.7793H49.8694ZM49.8694 10.8082V19.2709H47.4121V10.8082H49.8694Z" fill="#767E9D"/>
<path d="M70.1516 14.5274L70.1188 19.2712H67.668V15.5196C67.668 13.7258 67.3658 12.7929 65.6115 12.7929C64.3171 12.7929 63.0556 13.4105 62.3066 14.0807C62.3198 14.2252 62.3198 14.3697 62.3198 14.5274L62.2935 19.2712H59.8362V15.5196C59.8362 13.7258 59.5339 12.7929 57.7796 12.7929C56.3604 12.7929 54.9807 13.5222 54.2776 14.2843V19.2712H51.8203V10.8086H54.2776V12.1884C55.1975 11.4525 56.5773 10.6641 58.6732 10.6641C59.9544 10.6641 61.1568 11.0386 61.8073 12.2147C62.8979 11.3999 64.4026 10.6641 66.4985 10.6641C68.3973 10.6641 70.1188 11.4656 70.1516 14.5274Z" fill="#767E9D"/>
<path fill-rule="evenodd" clip-rule="evenodd" d="M80.7956 16.2357H83.2332C82.6747 18.3908 80.5788 19.4092 77.4447 19.4092C74.2318 19.4092 71.7285 18.1477 71.7285 15.0465C71.7285 11.9256 74.1596 10.6641 77.5893 10.6641C80.8088 10.6641 83.3778 11.7679 83.3778 15.6181H74.245C74.5144 16.9716 75.8087 17.4184 77.4447 17.4184C79.1399 17.4184 80.178 17.0964 80.7956 16.2357ZM74.3304 14.0544H80.7496C80.3357 12.8651 79.1267 12.53 77.5761 12.53C75.8941 12.53 74.718 12.8651 74.3304 14.0544Z" fill="#767E9D"/>
<path d="M102.701 10.8081L98.8905 19.2707H95.6184L93.1348 13.3771L90.6446 19.2707H87.3726L83.5684 10.8081H86.3082L89.0809 17.3456L91.6696 10.8081H94.6L97.1822 17.3259L99.9548 10.8081H102.701Z" fill="#767E9D"/>
<path fill-rule="evenodd" clip-rule="evenodd" d="M112.038 16.2357H114.475C113.917 18.3908 111.821 19.4092 108.687 19.4092C105.474 19.4092 102.971 18.1477 102.971 15.0465C102.971 11.9256 105.402 10.6641 108.831 10.6641C112.051 10.6641 114.62 11.7679 114.62 15.6181H105.487C105.757 16.9716 107.051 17.4184 108.687 17.4184C110.382 17.4184 111.42 17.0964 112.038 16.2357ZM105.573 14.0544H111.992C111.578 12.8651 110.369 12.53 108.818 12.53C107.136 12.53 105.96 12.8651 105.573 14.0544Z" fill="#767E9D"/>
<path fill-rule="evenodd" clip-rule="evenodd" d="M127.997 15.0461C127.997 18.2787 125.671 19.4088 122.951 19.4088C121.131 19.4088 119.653 18.9095 118.733 17.9437V19.2709H116.275V7.7793H118.733V12.1289C119.653 11.1696 121.131 10.6637 122.951 10.6637C125.671 10.6637 127.997 11.8135 127.997 15.0461ZM125.526 15.0461C125.526 13.3641 124.331 12.7202 122.136 12.7202C119.935 12.7202 118.733 13.3641 118.733 15.0461C118.733 16.7084 119.935 17.3589 122.136 17.3589C124.331 17.3589 125.526 16.7084 125.526 15.0461Z" fill="#767E9D"/>
<path d="M131.73 16.2949C131.73 17.2016 132.663 17.5432 135.409 17.5432C138.064 17.5432 138.497 17.3724 138.497 16.7088C138.497 16.0649 138.096 16.0189 135.12 15.8349C131.401 15.6181 129.575 15.3356 129.575 13.2922C129.575 11.078 132.163 10.6641 135.179 10.6641C138.366 10.6641 140.679 11.078 140.679 13.4105H138.208C138.208 12.7009 137.321 12.53 135.035 12.53C132.709 12.53 132.045 12.7009 132.045 13.1937C132.045 13.7259 132.492 13.8113 135.409 14.0281C138.714 14.2712 140.968 14.3566 140.968 16.6102C140.968 18.9953 138.813 19.4092 135.554 19.4092C132.288 19.4092 129.272 18.9953 129.272 16.2949H131.73Z" fill="#767E9D"/>
<path d="M0.0332031 13.5941C0.0332031 6.09073 6.11736 0 13.6273 0C21.1306 0 27.2148 6.09073 27.2148 13.5941C27.2148 21.0974 21.1306 27.1882 13.6273 27.1882C6.11736 27.1882 0.0332031 21.0974 0.0332031 13.5941Z" fill="#767E9D"/>
<path d="M4.88867 6.84668H10.756C10.756 10.0793 8.13443 12.7009 4.90181 12.7009H4.88867V6.84668Z" fill="#F7F8FA"/>
<path d="M22.3656 6.83984V12.7072H16.5049V12.694C16.5049 9.46142 19.1265 6.83984 22.3656 6.83984Z" fill="#F7F8FA"/>
<path d="M10.8018 9.77062C10.8018 8.18059 12.0895 6.88623 13.6796 6.88623C15.2762 6.88623 16.564 8.18059 16.564 9.77062C16.564 11.3672 15.2762 12.655 13.6796 12.655C12.0895 12.655 10.8018 11.3672 10.8018 9.77062Z" fill="#F7F8FA"/>
<path d="M16.5048 16.0644V22.7531H10.8018V16.0644C10.8018 14.4941 12.0764 13.2129 13.6533 13.2129C15.2302 13.2129 16.5048 14.4941 16.5048 16.0644Z" fill="#F7F8FA"/>
</svg>
