<svg width="16" height="16" viewBox="0 0 16 16" fill="none" xmlns="http://www.w3.org/2000/svg">
<path d="M8.00033 2.6665C8.70757 2.6665 9.38585 2.94746 9.88594 3.44755C10.386 3.94765 10.667 4.62593 10.667 5.33317C10.667 6.04041 10.386 6.71869 9.88594 7.21879C9.38585 7.71889 8.70757 7.99984 8.00033 7.99984C7.29308 7.99984 6.6148 7.71889 6.11471 7.21879C5.61461 6.71869 5.33366 6.04041 5.33366 5.33317C5.33366 4.62593 5.61461 3.94765 6.11471 3.44755C6.6148 2.94746 7.29308 2.6665 8.00033 2.6665ZM8.00033 9.33317C10.947 9.33317 13.3337 10.5265 13.3337 11.9998V13.3332H2.66699V11.9998C2.66699 10.5265 5.05366 9.33317 8.00033 9.33317Z" fill="#051E4B"/>
</svg>
