<svg width="12" height="12" viewBox="0 0 12 12" fill="none" xmlns="http://www.w3.org/2000/svg">
<path fill-rule="evenodd" clip-rule="evenodd" d="M6.42613 0.549094C6.16979 0.372307 5.83087 0.372307 5.57453 0.549094L0.741192 3.88243C0.538201 4.02242 0.416992 4.25325 0.416992 4.49984V9.49984C0.416992 10.6504 1.34973 11.5832 2.50033 11.5832H9.50033C10.6509 11.5832 11.5837 10.6504 11.5837 9.49984V4.49984C11.5837 4.25325 11.4625 4.02242 11.2595 3.88243L6.42613 0.549094ZM1.91699 9.49984V4.89366L6.00033 2.07757L10.0837 4.89366V9.49984C10.0837 9.82201 9.82249 10.0832 9.50033 10.0832H8.24992V8.49919C8.24992 7.34859 7.31718 6.41585 6.16658 6.41585H5.83325C4.68266 6.41585 3.74992 7.34859 3.74992 8.49919V10.0832H2.50033C2.17816 10.0832 1.91699 9.82201 1.91699 9.49984ZM5.24992 8.49919C5.24992 8.17702 5.51109 7.91585 5.83325 7.91585H6.16658C6.48875 7.91585 6.74992 8.17702 6.74992 8.49919V10.0825H5.24992V8.49919Z" fill="#051E4B"/>
</svg>
